<svg width="1em" height="1em" viewBox="0 0 22 22" fill="none" xmlns="http://www.w3.org/2000/svg">
<path d="M11 21C16.5228 21 21 16.5228 21 11C21 5.47715 16.5228 1 11 1C5.47715 1 1 5.47715 1 11C1 16.5228 5.47715 21 11 21Z" stroke="#979797" stroke-miterlimit="10"/>
<path d="M16.52 8.21699C16.4548 7.97185 16.3264 7.74815 16.1475 7.56826C15.9687 7.38837 15.7457 7.25862 15.501 7.19199C14.0079 7.0125 12.5047 6.93167 11.001 6.94999C9.49731 6.93167 7.99405 7.0125 6.501 7.19199C6.25625 7.25862 6.0333 7.38837 5.85446 7.56826C5.67563 7.74815 5.54719 7.97185 5.482 8.21699C5.16103 10.0638 5.16103 11.9522 5.482 13.799C5.5476 14.0422 5.67645 14.2637 5.85544 14.4409C6.03442 14.6181 6.25717 14.7448 6.501 14.808C7.99405 14.9875 9.49731 15.0683 11.001 15.05C12.5047 15.0683 14.0079 14.9875 15.501 14.808C15.7448 14.7448 15.9676 14.6181 16.1466 14.4409C16.3255 14.2637 16.4544 14.0422 16.52 13.799C16.841 11.9522 16.841 10.0638 16.52 8.21699ZM9.82 12.717V9.29499L12.831 11.008L9.82 12.721V12.717Z" fill="#979797"/>
</svg>
