<svg width="0.5em" height="1em" viewBox="0 0 9 18" xmlns="http://www.w3.org/2000/svg">
<path d="M0.173926 0.282013C0.0624714 0.395193 0 0.547667 0 0.706512C0 0.865358 0.0624714 1.01783 0.173926 1.13101L7.57993 8.60001L0.173926 16.083C0.0624714 16.1962 0 16.3487 0 16.5075C0 16.6664 0.0624714 16.8188 0.173926 16.932C0.228829 16.9878 0.294283 17.0321 0.366476 17.0623C0.438668 17.0926 0.516156 17.1082 0.594426 17.1082C0.672696 17.1082 0.750184 17.0926 0.822376 17.0623C0.894569 17.0321 0.960023 16.9878 1.01493 16.932L8.82593 9.03901C8.88187 8.9834 8.92609 8.91714 8.95597 8.84414C8.98586 8.77114 9.00081 8.69289 8.99993 8.61401C8.99898 8.45519 8.93663 8.3029 8.82593 8.18901L1.01393 0.296013C0.960864 0.237965 0.896514 0.191359 0.824815 0.159042C0.753116 0.126726 0.675576 0.109381 0.596942 0.10807C0.518307 0.10676 0.440233 0.121511 0.367497 0.151421C0.29476 0.18133 0.228893 0.225765 0.173926 0.282013Z"/>
</svg>
