<svg width="3.5em" height="1em" viewBox="0 0 21 6" xmlns="http://www.w3.org/2000/svg">
<path d="M19.663 2.31502L16.643 0.154016C16.5185 0.0671848 16.3725 0.0163028 16.2209 0.00694434C16.0694 -0.0024141 15.9183 0.0301122 15.784 0.100959C15.6497 0.171807 15.5376 0.278241 15.4598 0.408601C15.382 0.538961 15.3416 0.688217 15.343 0.840016V2.16102H0.839C0.616483 2.16102 0.40308 2.24941 0.245737 2.40675C0.0883944 2.5641 0 2.7775 0 3.00002C0 3.22253 0.0883944 3.43594 0.245737 3.59328C0.40308 3.75062 0.616483 3.83902 0.839 3.83902H15.339V5.16102C15.3376 5.31281 15.378 5.46207 15.4558 5.59243C15.5336 5.72279 15.6457 5.82923 15.78 5.90007C15.9143 5.97092 16.0654 6.00345 16.2169 5.99409C16.3685 5.98473 16.5145 5.93385 16.639 5.84702L19.659 3.68702C19.7675 3.60867 19.8559 3.50577 19.917 3.38671C19.9781 3.26766 20.0101 3.13584 20.0105 3.00203C20.0109 2.86822 19.9796 2.73622 19.9192 2.61682C19.8588 2.49741 19.771 2.39399 19.663 2.31502Z"/>
</svg>
