<svg width="1em" height="1em" viewBox="0 0 22 22" fill="none" xmlns="http://www.w3.org/2000/svg">
<path d="M11 21C16.5228 21 21 16.5228 21 11C21 5.47715 16.5228 1 11 1C5.47715 1 1 5.47715 1 11C1 16.5228 5.47715 21 11 21Z" stroke="#979797" stroke-miterlimit="10"/>
<path d="M15.988 9.06601C15.996 9.18001 15.996 9.29401 15.996 9.40701C16.0028 10.3894 15.8143 11.3633 15.4415 12.2723C15.0687 13.1812 14.5191 14.007 13.8244 14.7017C13.1298 15.3964 12.3041 15.9462 11.3952 16.3191C10.4863 16.692 9.51239 16.8807 8.53 16.874C7.10084 16.8766 5.70138 16.4661 4.5 15.692C4.71053 15.715 4.92222 15.7257 5.134 15.724C6.31511 15.727 7.4628 15.3321 8.392 14.603C7.84545 14.5937 7.31538 14.4143 6.87555 14.0897C6.43572 13.7651 6.108 13.3115 5.938 12.792C6.10339 12.8183 6.27054 12.832 6.438 12.833C6.67116 12.8325 6.90332 12.8026 7.129 12.744C6.53549 12.6229 6.00215 12.3002 5.61941 11.8307C5.23666 11.3612 5.02807 10.7738 5.029 10.168V10.136C5.39259 10.3389 5.79896 10.453 6.215 10.469C5.658 10.0975 5.2638 9.52736 5.11289 8.87505C4.96199 8.22273 5.06575 7.53741 5.403 6.95901C6.06111 7.76767 6.88141 8.42939 7.811 8.9015C8.74059 9.37362 9.75881 9.64563 10.8 9.70001C10.758 9.50274 10.7362 9.3017 10.735 9.10001C10.7347 8.57326 10.8927 8.05858 11.1885 7.62277C11.4844 7.18697 11.9045 6.85017 12.3941 6.6561C12.8838 6.46204 13.4206 6.41966 13.9346 6.53449C14.4487 6.64931 14.9164 6.91603 15.277 7.30001C15.8649 7.18679 16.4286 6.97226 16.943 6.66601C16.7472 7.27243 16.3369 7.78659 15.789 8.11201C16.3101 8.05275 16.8194 7.9159 17.3 7.70601C16.9423 8.22989 16.4987 8.68967 15.988 9.06601Z" fill="#979797"/>
</svg>
