<svg width="1em" height="1em" viewBox="0 0 87 87" fill="none" xmlns="http://www.w3.org/2000/svg">
<path d="M43.5 86C66.9721 86 86 66.9721 86 43.5C86 20.0279 66.9721 1 43.5 1C20.0279 1 1 20.0279 1 43.5C1 66.9721 20.0279 86 43.5 86Z" stroke="#D8D8D8" stroke-miterlimit="10"/>
<path d="M43.5 73C59.7924 73 73 59.7924 73 43.5C73 27.2076 59.7924 14 43.5 14C27.2076 14 14 27.2076 14 43.5C14 59.7924 27.2076 73 43.5 73Z" fill="#FAFAFA"/>
<path d="M50.791 42.6081L36.759 33.0841C36.6859 33.0349 36.601 33.0062 36.5131 33.0009C36.4252 32.9956 36.3374 33.014 36.259 33.0541C36.1812 33.0938 36.1159 33.1542 36.0702 33.2287C36.0245 33.3032 36.0002 33.3888 36 33.4761V52.5241C36.0003 52.6114 36.0246 52.697 36.0703 52.7714C36.116 52.8459 36.1813 52.9063 36.259 52.9461C36.3374 52.9863 36.4251 53.0048 36.5131 52.9995C36.6011 52.9942 36.686 52.9654 36.759 52.9161L50.791 43.3921C50.8554 43.349 50.9081 43.2906 50.9446 43.2223C50.981 43.1539 51.0001 43.0776 51.0001 43.0001C51.0001 42.9226 50.981 42.8463 50.9446 42.778C50.9081 42.7096 50.8554 42.6513 50.791 42.6081Z" fill="#4A4A4A"/>
</svg>
