<svg width="1em" height="1em" viewBox="0 0 22 22" fill="none" xmlns="http://www.w3.org/2000/svg">
<path d="M11 21C16.5228 21 21 16.5228 21 11C21 5.47715 16.5228 1 11 1C5.47715 1 1 5.47715 1 11C1 16.5228 5.47715 21 11 21Z" stroke="#979797" stroke-miterlimit="10"/>
<path d="M11 8.47701C10.501 8.47701 10.0132 8.62498 9.59829 8.90222C9.18339 9.17945 8.86001 9.57349 8.66905 10.0345C8.47809 10.4955 8.42813 11.0028 8.52548 11.4922C8.62283 11.9816 8.86312 12.4312 9.21597 12.784C9.56882 13.1369 10.0184 13.3772 10.5078 13.4745C10.9972 13.5719 11.5045 13.5219 11.9655 13.331C12.4265 13.14 12.8206 12.8166 13.0978 12.4017C13.375 11.9868 13.523 11.499 13.523 11C13.5235 10.6685 13.4586 10.3402 13.332 10.0339C13.2054 9.72754 13.0196 9.4492 12.7852 9.21481C12.5508 8.98042 12.2725 8.7946 11.9661 8.66799C11.6598 8.54139 11.3315 8.47649 11 8.47701ZM11 12.641C10.6754 12.641 10.3582 12.5448 10.0883 12.3645C9.81845 12.1841 9.60811 11.9279 9.48391 11.628C9.35971 11.3281 9.32721 10.9982 9.39053 10.6799C9.45385 10.3615 9.61014 10.0691 9.83964 9.83965C10.0691 9.61015 10.3615 9.45386 10.6799 9.39055C10.9982 9.32723 11.3281 9.35972 11.628 9.48393C11.9278 9.60813 12.1841 9.81846 12.3644 10.0883C12.5448 10.3582 12.641 10.6755 12.641 11C12.6402 11.435 12.4671 11.8519 12.1595 12.1595C11.8519 12.4671 11.435 12.6402 11 12.641ZM14.215 8.37401C14.215 8.49051 14.1805 8.60439 14.1157 8.70125C14.051 8.79811 13.959 8.8736 13.8514 8.91818C13.7438 8.96276 13.6253 8.97442 13.5111 8.9517C13.3968 8.92897 13.2919 8.87288 13.2095 8.7905C13.1271 8.70813 13.071 8.60318 13.0483 8.48892C13.0256 8.37467 13.0373 8.25624 13.0818 8.14861C13.1264 8.04099 13.2019 7.949 13.2988 7.88428C13.3956 7.81956 13.5095 7.78501 13.626 7.78501C13.7034 7.78462 13.7802 7.79954 13.8518 7.82893C13.9234 7.85831 13.9885 7.90158 14.0434 7.95623C14.0982 8.01089 14.1417 8.07585 14.1713 8.14738C14.2009 8.21891 14.2161 8.29559 14.216 8.37301L14.215 8.37401ZM15.886 8.97402C15.9008 8.20824 15.6134 7.46745 15.086 6.91202C14.5295 6.38639 13.7894 6.09927 13.024 6.11201C12.211 6.06601 9.776 6.06601 8.963 6.11201C8.19849 6.09696 7.45841 6.38157 6.901 6.90502C6.37445 7.46098 6.08718 8.20141 6.101 8.96702C6.055 9.78002 6.055 12.215 6.101 13.028C6.08621 13.7938 6.37362 14.5346 6.901 15.09C7.45777 15.6153 8.19766 15.9023 8.963 15.89C9.776 15.936 12.211 15.936 13.024 15.89C13.7898 15.9048 14.5306 15.6174 15.086 15.09C15.6116 14.5335 15.8987 13.7934 15.886 13.028C15.933 12.217 15.933 9.78301 15.887 8.97101L15.886 8.97402ZM14.836 13.905C14.7525 14.1169 14.6263 14.3093 14.4653 14.4703C14.3042 14.6313 14.1118 14.7575 13.9 14.841C12.9467 15.0375 11.9713 15.1048 11 15.041C10.0287 15.1037 9.05345 15.0365 8.1 14.841C7.88815 14.7575 7.69575 14.6313 7.53473 14.4703C7.37371 14.3093 7.24752 14.1169 7.164 13.905C6.96752 12.9517 6.90025 11.9763 6.964 11.005C6.90127 10.0338 6.96853 9.05847 7.164 8.10502C7.24752 7.89317 7.37371 7.70077 7.53473 7.53975C7.69575 7.37873 7.88815 7.25254 8.1 7.16902C9.05331 6.97254 10.0287 6.90526 11 6.96902C11.9713 6.90629 12.9465 6.97355 13.9 7.16902C14.1118 7.25254 14.3042 7.37873 14.4653 7.53975C14.6263 7.70077 14.7525 7.89317 14.836 8.10502C15.0325 9.05833 15.0997 10.0338 15.036 11.005C15.0998 11.9749 15.0329 12.949 14.837 13.901L14.836 13.905Z" fill="#979797"/>
</svg>
